# xmcd CD database file
#
# Track frame offsets:
#	150
#	18380
#	42842
#	61372
#	88952
#	106335
#	128379
#	151247
#	179025
#	199267
#	231247
#	251562
#
# Disc length: 3622 seconds
#
# Revision: 2
# Processed by: cddbd v1.5.2PL0 Copyright (c) Steve Scherf et al.
# Submitted via: CDex 1.70beta2
#
DISCID=9f0e240c
DTITLE=McCoy Tyner - Monk's Dream
DYEAR=2004
DGENRE=Jazz
TTITLE0=Beautiful Love
TTITLE1=Suddenly
TTITLE2=Giant Steps
TTITLE3=Darn That Dream
TTITLE4=Rhythm-a-ning
TTITLE5=You Taught My Heart to Sing
TTITLE6=Bluesin' With Bob
TTITLE7=Monk's dream
TTITLE8=Naima
TTITLE9=Miss Bea (Dedicated to Mother
TTITLE10=Rio
TTITLE11=Lady from Caracas
EXTD=YEAR: 2004
EXTT0=
EXTT1=
EXTT2=
EXTT3=
EXTT4=
EXTT5=
EXTT6=
EXTT7=
EXTT8=
EXTT9=
EXTT10=
EXTT11=
PLAYORDER=
